<?xml version="1.0" encoding="UTF-8" standalone="no"?>
<svg
   width="250"
   height="250"
   version="1.1"
   id="svg17"
   sodipodi:docname="logo-v2.svg"
   inkscape:version="1.1 (c68e22c387, 2021-05-23)"
   inkscape:export-filename="logo-v2.png"
   inkscape:export-xdpi="307.20001"
   inkscape:export-ydpi="307.20001"
   xmlns:inkscape="http://www.inkscape.org/namespaces/inkscape"
   xmlns:sodipodi="http://sodipodi.sourceforge.net/DTD/sodipodi-0.dtd"
   xmlns="http://www.w3.org/2000/svg"
   xmlns:svg="http://www.w3.org/2000/svg">
  <sodipodi:namedview
     id="namedview19"
     pagecolor="#ffffff"
     bordercolor="#666666"
     borderopacity="1.0"
     inkscape:pageshadow="2"
     inkscape:pageopacity="0.0"
     inkscape:pagecheckerboard="0"
     showgrid="false"
     inkscape:zoom="6.935224"
     inkscape:cx="115.64154"
     inkscape:cy="46.501742"
     inkscape:window-width="2560"
     inkscape:window-height="1334"
     inkscape:window-x="-11"
     inkscape:window-y="-11"
     inkscape:window-maximized="1"
     inkscape:current-layer="svg17"
     showguides="false" />
  <defs
     id="defs5">
    <filter
       id="f"
       x="-0.036020584"
       y="-0.036020584"
       width="1.0720412"
       height="1.0720412">
      <feGaussianBlur
         stdDeviation="3.5"
         id="feGaussianBlur2" />
    </filter>
  </defs>
  <path
     id="circle9"
     style="fill:#08e0f5"
     transform="scale(-1,1)"
     d="M -92.392356,137.95957 C -101.70705,155.1197 -62.481368,238.2 -125,238.2 c -62.51863,0 -113.2,-50.68137 -113.2,-113.2 0,-62.518632 50.68137,-113.199999 113.2,-113.199997 30.435472,10e-7 46.725931,19.706033 67.068993,39.246965 21.444376,20.598823 -19.155763,58.715662 -34.461349,86.912602 z"
     sodipodi:nodetypes="ssssss" />
  <path
     d="m 125,11.8 a -56.6,56.6 0 0 0 0,113.2 -56.6,56.6 0 0 1 0,113.2 -113.2,113.2 0 0 1 0,-226.4"
     id="path11"
     style="fill:#6b4acb;fill-opacity:1" />
  <circle
     cx="-125"
     cy="68.400002"
     r="17.6"
     id="circle13"
     transform="scale(-1,1)"
     style="fill:#6b4acb;fill-opacity:1" />
  <circle
     cx="-125"
     cy="181.60001"
     r="17.6"
     fill="#ffffff"
     id="circle15"
     transform="scale(-1,1)"
     style="fill:#0bdbf5;fill-opacity:0.99215686" />
</svg>
